<?xml version="1.0" encoding="utf-8"?>
<!-- Generator: Adobe Illustrator 20.1.0, SVG Export Plug-In . SVG Version: 6.00 Build 0)  -->
<svg version="1.1" id="Layer_1" xmlns="http://www.w3.org/2000/svg" xmlns:xlink="http://www.w3.org/1999/xlink" x="0px" y="0px"
	 viewBox="0 0 100 125" style="enable-background:new 0 0 100 125;" xml:space="preserve">
<style type="text/css">
	.st0{fill:#CECECE;}
</style>
<g>
	<path class="st0" d="M81.8,64l-5.1-10.2c-0.1-0.2-0.3-0.3-0.4-0.3h-1.7c0,0,0,0,0,0h-0.6c2.3-2.8,2.3-3,2-3.3
		c-0.3-2.5-1.8-13.5-4.3-14.8c-0.2-0.1-0.4-0.2-0.6-0.2l-1.4,7c0,2.2-1.8,4.1-4,4.1h-1v2.1h0.5c0.3,0,0.5,0.2,0.5,0.5V57
		c0,0.3-0.2,0.5-0.5,0.5h-0.5v1.9h3.2c0.3,0,0.5,0.2,0.5,0.5v13.8c0,0.2-0.1,0.4-0.3,0.5c0,0-0.5,0.2-1.4,0.4v9.5
		c0,2.3-1.9,4.2-4.2,4.2H38.9c-2.3,0-4.2-1.9-4.2-4.2v-9.5c-0.9-0.2-1.4-0.4-1.4-0.4c-0.2-0.1-0.3-0.3-0.3-0.5V59.9
		c0-0.3,0.2-0.5,0.5-0.5h3.9v-1.9h-0.5c-0.3,0-0.5-0.2-0.5-0.5v-8.1c0-0.3,0.2-0.5,0.5-0.5h0.5v-2.1h-1.6c-2.2,0-4-1.9-4-4.2l-1.4-7
		c-0.2,0.1-0.5,0.2-0.6,0.2c-2.6,1.4-4,12.4-4.3,14.8c-0.3,0.3-0.3,0.4,2,3.3h-2.3c-0.2,0-0.4,0.1-0.4,0.3L19.5,64
		c-0.1,0.2,0,0.5,0.2,0.7l1.1,0.6c0.2,0.1,0.5,0.1,0.6-0.2l1.5-2.2c-0.3,3.7-1,12.1-1.2,16c-0.3,4.9,0.5,6,0.9,6.3l6.6,3.4
		c0,0.1,0,0.1,0,0.2c0,0.2,0.1,0.3,0.2,0.4c1.8,1.3,5.5,1.5,5.6,1.5h15.4h15.5c0.2,0,3.8-0.2,5.6-1.5c0.1-0.1,0.2-0.2,0.2-0.4
		c0-0.1,0-0.1,0-0.2l6.7-3.4c0.3-0.2,1.1-1.3,0.8-6.3c-0.2-3.9-0.9-12.3-1.2-16l1.5,2.2c0.1,0.2,0.4,0.3,0.6,0.2l1.1-0.6
		C81.8,64.6,81.9,64.3,81.8,64z M23.3,60.9L21,64.2L20.7,64l4.8-9.5H26L23.3,60.9z M80.4,64.2L78,60.9l-2.7-6.4h0.6l4.8,9.5
		L80.4,64.2z"/>
	<path class="st0" d="M43.8,18.5h2.4c0.2,0,0.4-0.1,0.4-0.3l2.1-4.2h3.8l2.1,4.2c0.1,0.2,0.3,0.3,0.4,0.3h2.4c0,0,0,0,0,0
		c0.3,0,0.5-0.2,0.5-0.5c0-0.1,0-0.2-0.1-0.3l-3.4-6.8c-0.1-0.2-0.3-0.3-0.4-0.3h-6.9c-0.2,0-0.4,0.1-0.4,0.3l-3.4,6.9
		c-0.1,0.2-0.1,0.3,0,0.5S43.6,18.5,43.8,18.5z"/>
	<path class="st0" d="M28.6,33.9h44.1c0.1,0,0.3-0.1,0.4-0.2s0.1-0.2,0.1-0.4L73,23.5c0-2.3-2.1-4.2-4.6-4.2H32.9
		c-2.5,0-4.6,1.9-4.6,4.2l-0.2,9.9c0,0.1,0,0.3,0.1,0.4S28.5,33.9,28.6,33.9z"/>
	<path class="st0" d="M43.2,57.5h-0.5v1.9h16.7v-1.9h-0.5c-0.3,0-0.5-0.2-0.5-0.5v-8.1c0-0.3,0.2-0.5,0.5-0.5h0.5v-2.1H42.6v2.1h0.5
		c0.3,0,0.5,0.2,0.5,0.5V57C43.7,57.3,43.5,57.5,43.2,57.5z"/>
	<path class="st0" d="M59.4,35l-16.7,0v10.3h16.7V35z M50.7,42.5c-1.3,0-2.3-1-2.3-2.3s1-2.3,2.3-2.3s2.3,1,2.3,2.3
		S52,42.5,50.7,42.5z"/>
	<path class="st0" d="M35.7,74.8v9.3c0,1.7,1.4,3.2,3.2,3.2h23.5c1.7,0,3.2-1.4,3.2-3.2v-9.3c-2.9,0.7-8.1,1.6-14.9,1.6
		C43.9,76.4,38.6,75.5,35.7,74.8z"/>
	<path class="st0" d="M67.4,60.4h-2.7v6c0,0.3-0.2,0.5-0.5,0.5h-4.3c-0.3,0-0.5-0.2-0.5-0.5v-6H42.6v6c0,0.3-0.2,0.5-0.5,0.5h-4.3
		c-0.3,0-0.5-0.2-0.5-0.5v-6H34v12.9c1.5,0.4,7.7,2.1,16.7,2.1s15.2-1.6,16.7-2.1C67.4,73.3,67.4,60.4,67.4,60.4z M50.7,74.4
		c-1.3,0-2.3-1-2.3-2.3s1-2.3,2.3-2.3s2.3,1,2.3,2.3S52,74.4,50.7,74.4z"/>
	<path class="st0" d="M60.1,50.7v4.5c0,0.3,0.2,0.5,0.5,0.5h2.7c0.3,0,0.5-0.2,0.5-0.5v-4.5c0-0.3-0.2-0.5-0.5-0.5h-2.7
		C60.4,50.2,60.1,50.4,60.1,50.7z"/>
	<path class="st0" d="M38.1,50.7v4.5c0,0.3,0.2,0.5,0.5,0.5h2.7c0.3,0,0.5-0.2,0.5-0.5v-4.5c0-0.3-0.2-0.5-0.5-0.5h-2.7
		C38.4,50.2,38.1,50.4,38.1,50.7z"/>
	<rect x="60.4" y="57.5" class="st0" width="3.3" height="8.5"/>
	<path class="st0" d="M65.6,45.3c1.6,0,3-1.4,3-3.2L70,35l-5.3,0v10.3L65.6,45.3L65.6,45.3z"/>
	<rect x="60.4" y="35" class="st0" width="3.3" height="13.3"/>
	<rect x="38.4" y="57.5" class="st0" width="3.3" height="8.5"/>
	<rect x="38.4" y="35" class="st0" width="3.3" height="13.4"/>
	<path class="st0" d="M32.7,42c0,1.8,1.3,3.3,3,3.3h1.6V35l-6,0L32.7,42z"/>
</g>
</svg>
