<?xml version="1.0" encoding="utf-8"?>
<!-- Generator: Adobe Illustrator 20.1.0, SVG Export Plug-In . SVG Version: 6.00 Build 0)  -->
<svg version="1.1" id="Layer_1" xmlns="http://www.w3.org/2000/svg" xmlns:xlink="http://www.w3.org/1999/xlink" x="0px" y="0px"
	 viewBox="0 0 127.5 156.7" style="enable-background:new 0 0 127.5 156.7;" xml:space="preserve">
<style type="text/css">
	.st0{fill:#DBDBDB;}
</style>
<circle class="st0" cx="115.4" cy="30.5" r="10.8"/>
<path class="st0" d="M104.8,87.9C104.8,87.9,104.8,87.8,104.8,87.9L104.8,87.9z"/>
<path class="st0" d="M104.8,87.9c1.4-5.9,2.4-11.9,3.5-17.8l1.4,5.4c1.2,4.7,8.3,5.9,9.1-0.1c0.6-1.5,0.8-3.4,1.2-5
	c1.2-4.8,2.4-9.5,3.5-14.3c1.5-5.9-7.6-8.1-9.1-2.3l-0.3,1.1c-0.5-3.6-0.4-5.8-1.2-8.7c-1.4-5.7-9.8-7.9-14.3-4.5l1.5-4.6
	c4-12-14.6-18.1-18.5-6.1l-10.9,33c-3.2,9.6,9.3,17.2,16.4,9.8c-1.9,10.8-3.9,21.5-5.8,32.3c-0.6,3.4-2.7,5.5-4.8,8.3
	c-3.2,4.4-6.4,8.8-9.6,13.1c-2.5,3.4-0.6,8.3,3.5,9.2c2.9,0.6,5-1.1,6.7-3.3c3.4-4.7,6.8-9.3,10.2-14c2.4-3.3,4.5-5.8,5.2-9.9
	c0.9-4.8,1.7-9.7,2.6-14.5l17.4,38.6c3.1,6.9,13.8,2.1,10.7-4.8L104.8,87.9z"/>
<circle class="st0" cx="54.4" cy="30.5" r="10.8"/>
<path class="st0" d="M43.8,87.9C43.8,87.9,43.8,87.8,43.8,87.9L43.8,87.9z"/>
<path class="st0" d="M43.8,87.9c1.4-5.9,2.4-11.9,3.5-17.8l1.4,5.4c1.2,4.7,8.3,5.9,9.1-0.1c0.6-1.5,0.8-3.4,1.2-5
	c1.2-4.8,2.4-9.5,3.5-14.3c1.5-5.9-7.6-8.1-9.1-2.3L53.3,55c-0.5-3.6-0.4-5.8-1.2-8.7c-1.4-5.7-9.8-7.9-14.3-4.5l1.5-4.6
	c4-12-14.6-18.1-18.5-6.1l-10.9,33C7,72.7,16.6,79.7,23.7,75.8l-8.9,29.4h5.7c-0.1,0.3-0.1,0.7-0.2,1c-0.6,3.4-2.7,5.5-4.8,8.3
	c-3.2,4.4-6.4,8.8-9.6,13.1c-2.5,3.4-0.6,8.3,3.5,9.2c2.9,0.6,5-1.1,6.7-3.3c3.4-4.7,6.8-9.3,10.2-14c2.4-3.3,4.5-5.8,5.2-9.9
	c0.3-1.5,0.5-3,0.8-4.4h6.3l12.8,28.5c3.1,6.9,13.8,2.1,10.7-4.8L43.8,87.9z"/>
</svg>
