<?xml version="1.0" encoding="utf-8"?>
<!-- Generator: Adobe Illustrator 20.1.0, SVG Export Plug-In . SVG Version: 6.00 Build 0)  -->
<svg version="1.1" id="Layer_1" xmlns="http://www.w3.org/2000/svg" xmlns:xlink="http://www.w3.org/1999/xlink" x="0px" y="0px"
	 viewBox="0 0 97.8 100.2" style="enable-background:new 0 0 97.8 100.2;" xml:space="preserve">
<style type="text/css">
	.st0{fill:#CECECE;}
</style>
<title>122 Mountains</title>
<path class="st0" d="M50.4,24.4l-11-23.6c0,0-0.1-0.1-0.1-0.1c-0.1-0.2-0.3-0.3-0.5-0.5l0,0c-0.2,0-0.3-0.1-0.5-0.1
	c-0.2,0-0.3,0.1-0.5,0.1h-0.1c0,0-0.1,0.1-0.1,0.1c-0.2,0.1-0.3,0.3-0.5,0.5L26.2,23.6L0.1,78.3c-0.3,0.6,0,1.4,0.6,1.7
	c0.2,0.1,0.4,0.1,0.5,0.1h74.2l-13-29.6L50.4,24.4z M38.7,32.8l-9.7-9l9.3-19.5l9.4,20.3L38.7,32.8z"/>
<path class="st0" d="M97.6,78.3L75.5,29.8c-0.2-0.5-0.7-0.7-1.2-0.8c-0.5,0-1,0.3-1.2,0.7l-8.9,18.5l14,31.9h18.2
	c0.7,0,1.3-0.6,1.3-1.3C97.8,78.7,97.7,78.5,97.6,78.3z M74.3,45.6l-4-3.7l4.1-8.5l3.9,8.6L74.3,45.6z"/>
</svg>
