<?xml version="1.0" encoding="utf-8"?>
<!-- Generator: Adobe Illustrator 20.1.0, SVG Export Plug-In . SVG Version: 6.00 Build 0)  -->
<svg version="1.1" id="Layer_1" xmlns="http://www.w3.org/2000/svg" xmlns:xlink="http://www.w3.org/1999/xlink" x="0px" y="0px"
	 viewBox="0 0 100 125" style="enable-background:new 0 0 100 125;" xml:space="preserve">
<style type="text/css">
	.st0{fill:#E9E9E9;stroke:#E9E9E9;stroke-width:0.25;stroke-miterlimit:10;}
</style>
<path class="st0" d="M86.4,72.3h-1.6v-6.4c0-7.5-6.1-13.5-13.5-13.5h-16V31.5l2.1-0.4c1.2-0.2,2.1-1.3,2.1-2.5V12.3
	c0-1.4-1.1-2.5-2.5-2.5H13.6c-1.4,0-2.5,1.1-2.5,2.5v24.2c0,0.7,0.3,1.4,0.9,1.9c0.5,0.4,1,0.6,1.6,0.6c0.1,0,0.3,0,0.4,0l1.2-0.2
	v33.6h-1.6c-1.4,0-2.5,1.1-2.5,2.5v8.7c0,1.4,1.1,2.5,2.5,2.5h1.6v1.7c0,1.4,1.1,2.5,2.5,2.5s2.5-1.1,2.5-2.5V86h4.2v1.7
	c0,1.4,1.1,2.5,2.5,2.5s2.5-1.1,2.5-2.5V86h4.2v1.7c0,1.4,1.1,2.5,2.5,2.5s2.5-1.1,2.5-2.5V86h4.2v1.7c0,1.4,1.1,2.5,2.5,2.5
	s2.5-1.1,2.5-2.5V86H52v1.7c0,1.4,1.1,2.5,2.5,2.5s2.5-1.1,2.5-2.5V86h4.2v1.7c0,1.4,1.1,2.5,2.5,2.5s2.5-1.1,2.5-2.5V86h4.2v1.7
	c0,1.4,1.1,2.5,2.5,2.5s2.5-1.1,2.5-2.5V86h4.2v1.7c0,1.4,1.1,2.5,2.5,2.5s2.5-1.1,2.5-2.5V86h1.6c1.4,0,2.5-1.1,2.5-2.5v-8.7
	C88.9,73.4,87.8,72.3,86.4,72.3z M16.1,81v-3.7h1.6h28.6h37.5V81H16.1z M16.1,14.8h38.3v11.8L52.3,27l0,0l-34.5,6.2h-0.1
	c-0.3,0-0.7,0.1-1,0.2l-0.6,0.1C16.1,33.5,16.1,14.8,16.1,14.8z M50.3,32.4v9.8h-10c-1.4,0-2.5,1.1-2.5,2.5s1.1,2.5,2.5,2.5h10v5.1
	h-10c-1.4,0-2.5,1.1-2.5,2.5s1.1,2.5,2.5,2.5h30.9c4.7,0,8.5,3.8,8.5,8.5v6.4H46.3h-8.8c-1.1-9-8.3-16.2-17.3-17.3V37.8L50.3,32.4z
	 M20.2,60.1c6.2,1.1,11.2,6,12.2,12.2H20.2V60.1z"/>
</svg>
